# xmcd CD database file
#
# Track frame offsets:
#	150
#	21877
#	41942
#	64390
#	85565
#	107835
#	124087
#	144775
#	163310
#	183205
#
# Disc length: 2732 seconds
#
# Revision: 0
# Processed by: cddbd v1.5.1PL2 Copyright (c) Steve Scherf et al.
# Submitted via: CDex 1.51
#
DISCID=850aaa0a
DTITLE=Inst. - ガラスが奏でるクリスタルウィンド チャゲ&飛鳥作品集
DYEAR=1992
DGENRE=Instrumental
TTITLE0=SAY YES
TTITLE1=はじまりはいつも雨
TTITLE2=太陽と埃の中で
TTITLE3=モーニングムーン
TTITLE4=恋人はワイン色
TTITLE5=LOVE SONG
TTITLE6=男と女
TTITLE7=万里の河
TTITLE8=ひとり咲き
TTITLE9=終章（エピローグ）
EXTD=YEAR: 1992
EXTT0=
EXTT1=
EXTT2=
EXTT3=
EXTT4=
EXTT5=
EXTT6=
EXTT7=
EXTT8=
EXTT9=
PLAYORDER=
